<svg xmlns="http://www.w3.org/2000/svg" xmlns:xlink="http://www.w3.org/1999/xlink" width="770" height="657" fill="none" xmlns:v="https://vecta.io/nano"><style><![CDATA[.B{stroke-linecap:round}.C{stroke-linejoin:round}.D{stroke-miterlimit:10}.E{stroke:#00ad9f}.F{fill:#0056ec}.G{fill:#5275a0}.H{opacity:.2}.I{stroke:#0b43a4}.J{fill:#0c2340}.K{fill:#ffb9a3}.L{fill:#c8dbfb}.M{fill:#5193f4}.N{fill:#52d2bc}.O{fill:#4a49ca}.P{fill:#0b43a4}.Q{stroke:#c8dbfb}.R{fill:#00ad9f}.S{stroke-dasharray:4 4}.T{fill:#ef832b}]]></style><g clip-path="url(#A)"><path d="M161.783 83.535c25.341 1.703 35.952-15.585 47.844-37.802C242.22-15.081 314.822-9.227 339.174 28.218c17.246 26.531 54.447 21.066 84.526 10.687 29.609-10.217 80.065-20.028 120.268-7.817 35.108 10.671 49.499 49.138 81.508 46.77 69.812-5.157 105.001 63.716 92.347 93.767-8.258 19.607-12.347 41.548-5.646 61.722 7.381 22.218 24.27 39.813 37.915 58.917s24.628 42.991 17.846 65.403c-5.808 19.185-23.119 32.45-33.859 49.397-33.373 52.657-.357 133.369-44.827 177.268-31.831 31.413-83.715 24.163-128.249 30.164-37.137 4.995-72.083 20.595-109.057 26.693-74.873 12.374-150.476-14.871-226.371-15.649-26.737-.276-53.977 2.708-79.87-3.876-34.557-8.79-63.955-35.37-75.944-68.631-16.548-45.894-.876-99.021-19.55-144.104C34.993 372.197-2.241 342.309.112 302.675c1.46-24.682 18.317-45.31 29.917-67.203 17.23-32.515-5.597-161.116 131.754-151.937zm220.936-59.581c-6.668 0-12.054 4.135-12.054 9.227s5.418 8.79 12.054 9.228c21.659 1.427 21.659-7.314 21.659-12.422 0-8.141-15.007-6.033-21.659-6.033zm219.947 39.375c5.792 4.784 13.173 7.638 20.701 8.027 2.012.097 4.202-.032 5.743-1.297 1.915-1.573 2.126-4.8.422-6.6-1.07-1.135-2.628-1.638-4.088-2.238-2.482-1.006-4.9-2.449-6.311-4.703-.406-.649-.763-1.411-1.428-1.784-4.169-2.351-22.665 2.303-15.039 8.595zm36.893 8.157c1.914.665 3.991.049 5.921-.568 1.233-.405 2.742-1.281 2.418-2.514-.163-.6-.714-.989-1.266-1.281-2.531-1.346-5.808-2.351-8.339-.616-2.547 1.719-.633 4.33 1.266 4.979zm88.079 173.96c.324 2.871 2.109 5.352 3.813 7.687 3.309 4.508 6.668 9.082 11.032 12.601 1.849 1.492 3.991 2.821 6.376 2.902 2.174.082 4.25-.908 6.003-2.173 4.283-3.065 7.17-7.978 7.771-13.184.811-7.136-2.515-14.093-6.376-20.174-2.401-3.762-5.192-7.525-9.183-9.536-6.717-3.389-11.146-.437-13.028 5.514-1.703 5.482-7.106 10.266-6.408 16.363zM13.172 411.67c-3.537 3.113-.341 12.227.698 18.244.308 1.8.73 3.665 1.866 5.108 1.557 1.962 4.153 2.773 6.571 3.487 4.299 1.248 9.523 2.303 12.817-.714 2.434-2.238 2.791-5.903 2.774-9.195 0-3.016-.162-6.016-.487-9.017-.146-1.443-.357-2.919-1.136-4.151-.99-1.573-2.742-2.481-4.445-3.211-6.149-2.595-15.121-3.649-18.657-.551zm216.134 228.286c-2.093.422-4.591 1.33-4.899 3.422-.244 1.736 1.2 3.211 2.612 4.249 11.535 8.611 27.077 9.163 41.516 9.357 1.688.017 3.44.033 4.981-.616 3.083-1.297 4.575-5.368 3.131-8.368-.519-1.103-1.346-2.027-2.222-2.87-11.584-11.304-30.663-8.06-45.119-5.174zm288.233-5.821c-13.028 9.519.146 18.033 16.597 11.724 8.858-3.405 17.36-6.762 26.445-9.032 2.936-.73 20.669-4.574 20.669-8.547 0-10.557-19.971-8.06-32.545-6.308-10.14 1.411-20.426 4.314-31.166 12.163z" fill="#ecf3ff"/><g class="L"><path d="M272.739 606.614c34.631 0 62.706-2.621 62.706-5.855s-28.075-5.854-62.706-5.854-62.705 2.621-62.705 5.854 28.074 5.855 62.705 5.855zm322.124 0c34.631 0 62.705-2.621 62.705-5.855s-28.074-5.854-62.705-5.854-62.705 2.621-62.705 5.854 28.074 5.855 62.705 5.855z"/></g><g class="B C Q"><path d="M727.348 188.49l-.584-3.194"/><path d="M725.222 179.02c-11.178-38.078-46.854-34.397-79.091-34.332l-571.907 1.184c-53.993.114-48.753 78.02-6.49 77.923 24.303-.049 33.551 45.57-8.469 45.651-25.212.048-26.023 31.996-9.069 38.402" stroke-dasharray="3.99 3.99"/><path d="M53.312 308.675c1.022.178 2.109.275 3.245.259"/></g><g class="M"><path d="M63.176 307.458c.714 4.233-2.125 8.239-6.36 8.968-4.234.714-8.242-2.124-8.972-6.357-.714-4.232 2.125-8.238 6.36-8.968 4.234-.713 8.258 2.141 8.972 6.357zm671.813-115.465c-.763 4.217-4.819 7.022-9.037 6.244a7.76 7.76 0 0 1-6.246-9.033c.762-4.217 4.818-7.022 9.037-6.244 4.218.762 7.008 4.801 6.246 9.033zM142.38 250.731c-1.119 6.309-2.758 12.471-4.753 18.553-4.299 13.119-10.237 25.752-16.24 38.223-3.131 6.519-15.835 21.601-22.649 24.472.795-17.012.86-36.878-1.119-54.052-1.898-16.541 4.056-29.077-2.434-44.418l-2.547-5.887c-3.229-7.298-6.425-14.628-7.431-22.493-1.298-9.973 1.801-21.342 10.432-26.531 6.213-3.73 14.309-3.535 20.945-.6s11.957 8.303 15.996 14.32c11.308 16.8 13.352 38.499 9.799 58.413z"/></g><path d="M112.204 195.642c12.704 17.936 13.807 38.824 14.91 60.765s-4.169 44.175-15.023 63.279" class="B C D I"/><path d="M111.669 526.437c-8.907-7.865-17.911-15.844-24.498-25.737-5.727-8.611-9.426-18.39-14.423-27.455-3.228-5.854-7.057-11.514-8.923-17.936s-1.428-14.044 3.147-18.925c4.77-5.109 12.963-5.887 19.436-3.26s11.422 8.076 15.185 13.947c5.013 7.8 8.372 16.671 9.767 25.833 1.265 8.304.941 16.801 2.239 25.104 1.2 7.736 3.812 15.163 7.09 22.25 2.969 6.422 10.513 17.888 12.427 24.472-5.338 2.643-17.651-14.936-21.448-18.293z" class="R"/><path d="M80.536 444.865c8.469 3.698 11.827 13.801 13.596 22.866 2.012 10.314 1.557 21.488 6.295 30.878 8.923 17.692 20.523 37.818 29.154 43.834" class="B C D E"/><path d="M67.848 502.241c-7.382-2.919-17.262-4.119-22 2.254-3.959 5.336-1.915 12.909.827 18.958 2.32 5.108 5.257 10.314 10.124 13.087 3.326 1.897 7.236 2.465 11.048 2.919 10.627 1.265 21.318 1.881 32.026 1.849 12.395-.033 27.418 5.027 37.688 12.763-13.174-24.456-44.843-42.019-69.714-51.83z" class="F"/><path d="M54.885 518.134c9.41.405 18.901 1.054 27.921 3.73 9.231 2.724 44.746 19.022 50.293 25.947" class="B C D I"/><path d="M148.448 452.033c-9.621-15.049-26.071-25.558-43.772-27.942-13.076-1.751-26.526.681-39.44-2.027-13.563-2.838-25.796-11.579-32.869-23.498s-8.923-26.807-4.948-40.089c3.034-10.087 9.961-19.655 19.988-22.882 5.468-1.751 11.438-1.508 17.019-.178 5.159 1.232 9.945 3.389 14.358 6.195 10.091 6.389 18.252 16.217 24.384 26.66 5.565 9.487 19.291 24.261 28.636 33.878l9.458 9.454c6.392 7.979 3.391 30.942 7.187 40.429z" class="N"/><path d="M44.47 364.769c31.426 14.174 65.69 32.759 87.982 59.063" class="B C D E"/><g class="G"><path d="M135.469 420.296s-46.822-37.947-56.702-78.668c10.091 6.389 18.252 16.217 24.384 26.66 5.565 9.487 19.29 24.261 28.635 33.878l3.683 18.13zm2.157-151.012c-4.299 13.119-10.237 25.752-16.24 38.223-3.131 6.519-15.834 21.601-22.648 24.472.795-17.012.86-36.878-1.12-54.052-1.898-16.541 4.056-29.077-2.434-44.418l-2.547-5.887a20.4 20.4 0 0 1 1.752.649c10.675 4.573 15.607 15.86 16.516 26.823.762 9.049-.876 18.114-2.093 27.115-.568 4.151-1.022 8.4-.13 12.47.016.049.033.082.033.13 1.119 4.849 8.209 4.573 9.117-.34l2.839-15.066c.844-4.508 1.769-9.227 5.468-12.374 1.46-1.248 3.342-2.027 5.256-1.962 3.051.114 4.965 1.898 6.23 4.217z" class="H"/></g><path d="M135.469 410.793c-7.398-38.612-11.292-44.564-8.031-54.246 4.154-12.341 1.817-24.731 5.727-37.153 3.91-12.406 6.571-25.752 3.423-38.385-.989-3.99-3.017-8.336-7.819-8.514-1.931-.065-3.797.713-5.257 1.962-3.699 3.146-4.624 7.865-5.467 12.373l-2.823 15.066c-.925 4.898-7.999 5.19-9.118.324-.016-.048-.016-.081-.033-.129-.908-4.071-.438-8.32.114-12.471 1.217-9.017 2.855-18.066 2.109-27.131-.908-10.963-5.841-22.25-16.532-26.807-3.78-1.622-8.063-1.978-12.054-.957-11.146 2.854-14.034 13.752-12.395 23.045 1.152 6.551 4.218 12.568 6.992 18.601 6.782 14.741 1.801 28.266 2.742 44.467 2.596 44.742 58.422 89.955 58.422 89.955z" fill="#7ee8d4"/><path d="M85.727 246.434c5.5 27.471 11.065 55.138 21.74 81.053 3.131 7.589 4.656 17.595 22.778 38.255" class="B C D E"/><path d="M300.287 253.472c-5.694-6.503-10.951-13.12-16.483-19.493-3.586-4.135-7.285-8.173-11.308-12a114.25 114.25 0 0 0-6.23-5.563c-12.85-10.606-27.191-19.412-42.523-25.963-9.248-3.957-19.014-7.217-26.867-13.525-7.852-6.292-13.498-16.639-10.886-26.353 1.898-7.006 7.853-12.455 14.683-14.952 6.814-2.481 14.374-2.287 21.464-.762 19.793 4.265 36.325 18.487 47.568 35.304l.601.908c8.241 12.569 14.001 26.548 19.014 40.786l4.64 13.768c2.271 6.86 9.247 21.05 6.327 27.845z" class="M"/><path d="M209.742 151.386c21.594 4.119 36.876 18.406 52.889 33.456s27.63 34.72 33.065 56.013" class="B C D I"/><path d="M283.804 233.979c-.179 2.238-.114 4.476.308 6.746-5.403-1.232-9.15-9.616-11.616-18.746-2.418-8.871-3.618-18.472-3.991-22.899-.73-9.341-.13-18.812 1.8-28.007 8.242 12.569 14.002 26.548 19.015 40.786-1.72 5.109-3.196 10.282-4.413 15.504-.519 2.221-.925 4.411-1.103 6.616z" class="G H"/><path d="M321.265 156.056c-1.834 8.093-6.717 15.082-11.032 22.185a171.43 171.43 0 0 0-6.376 11.466 174.58 174.58 0 0 0-14.375 39.277c-1.054 4.46-1.638 8.839-.795 13.363-10.643-2.432-14.893-32.677-15.607-41.661-1.282-16.185 1.476-32.775 8.144-47.597 2.904-6.503 6.668-12.893 12.46-17.061 5.776-4.167 13.953-5.627 20.069-1.994 3.683 2.189 6.052 5.822 7.203 9.957 1.136 3.86 1.185 8.157.309 12.065z" class="N"/><path d="M284.631 233.428c-6.619-16.623-2.596-51.797 8.015-73.901 3.196-6.665 7.755-12.909 14.131-16.623" class="B C D E"/><path d="M321.265 156.058c-1.834 8.092-6.717 15.081-11.033 22.184a172.33 172.33 0 0 0-6.376 11.466c-2.904-4.898-4.899-10.298-5.451-15.941-.892-9.423 2.71-19.51 10.367-25.056 3.586-2.578 7.788-4.054 12.184-4.719 1.136 3.86 1.185 8.157.309 12.066z" class="G H"/><path d="M382.672 226.455c-.503 3.097-1.428 6.081-2.758 8.951-4.721 10.217-14.634 18.974-29.479 26.11l-1.006-20.482c-.73-18.52-20.831-28.753-33.551-42.262-6.473-6.892-11.389-15.584-12.297-25.007-.893-9.422 2.709-19.509 10.367-25.055 6.424-4.638 14.828-5.643 22.745-5.043 12.752 1.021 25.618 6.357 33.551 16.314.341.373.633.778.925 1.168 4.851 6.632 7.35 14.708 9.183 22.752 3.18 13.93 4.607 28.428 2.32 42.554z" class="R"/><path d="M319.431 158.635c13.92 7.2 27.857 15.893 35.952 29.288 11.308 18.698 8.842 43.024.13 63.052" class="B C D E"/><path d="M615.484 345.893c8.874-14.595 4.332-33.375 7.43-50.159 2.369-12.909 9.556-24.877 19.842-33.051 6.457-5.124 15.526-8.789 22.811-4.946 1.574.827 3.456 2.011 4.981 1.07.908-.551 1.265-1.686 1.492-2.724 1.85-9.065-2.514-18.974 1.055-27.52 1.914-4.606 5.889-8.044 10.091-10.72a55.02 55.02 0 0 1 27.207-8.53c2.548-.097 5.208 0 7.496 1.135 4.121 2.06 6.003 7.201 5.451 11.774s-3.083 8.676-5.873 12.341c-9.312 12.179-22.957 22.688-24.758 37.899-.227 1.914-.227 3.957.649 5.676.86 1.67 2.45 2.854 3.342 4.492 2.872 5.271-2.676 11.255-8.079 13.833-4.948 2.368-10.302 3.844-15.77 4.363-3.764.357-7.998.438-10.561 3.211-4.721 5.124.697 13.314-.292 20.206-.617 4.298-3.732 7.768-6.879 10.784-5.825 5.595-12.184 10.606-18.982 14.969-5.516 3.535-11.341 6.649-16.224 10.995s-8.826 10.233-9.15 16.768" class="N"/><path d="M627.165 331.687c1.444-7.071 4.737-13.623 7.998-20.061 5.095-10.071 10.286-20.287 17.976-28.542 5.841-6.276 12.963-11.238 18.901-17.417a64.98 64.98 0 0 0 10.675-14.822c1.542-2.935 2.872-6.017 4.933-8.595 2.466-3.065 5.824-5.255 8.76-7.882 3.959-3.535 7.139-7.93 9.28-12.795" class="B C D E"/><path d="M742.857 356.012c-1.995 7.687-4.964 15.293-10.058 21.39-3.521 4.201-7.901 7.525-12.687 10.233-2.467 1.411-5.062 2.644-7.674 3.746a92.15 92.15 0 0 1-32.075 7.104c-16.029.6-32.512-2.936-47.893 1.637-7.057 2.092-13.563 5.903-18.9 10.947-3.343 3.13-6.214 6.746-8.486 10.719l2.093-13.298c3.878-14.303 7.836-28.866 15.754-41.402 5.11-8.124 11.746-15.195 18.803-21.698 11.276-10.411 23.784-19.574 37.591-26.272 11.162-5.416 23.557-9.227 35.887-7.719 12.314 1.492 24.417 9.276 28.262 21.066 2.466 7.573 1.395 15.844-.617 23.547z" class="M"/><path d="M617.658 398.371c11.778-17.417 29.414-30.812 49.369-37.461 12.427-4.152 25.585-5.725 38.175-9.358s25.163-9.795 32.545-20.628" class="B C D I"/><path d="M625.413 526.112c.698-17.887 9.945-34.396 21.189-48.343 9.361-11.627 20.669-22.266 34.638-27.568 4.38-1.655 9.182-2.774 13.725-1.655s8.663 4.995 8.745 9.682c.064 3.941-2.58 7.395-5.371 10.184-9.182 9.195-21.042 15.082-32.171 21.796-19.112 11.546-37.283 26.953-44.859 47.954" class="N"/><path d="M632.487 510.463c11.681-26.045 41.922-49.332 61.861-52.235" class="B C D E"/><path d="M618.112 540.335c-.162-3 9.621-10.833 11.828-12.828 12.216-11.076 26.72-19.217 42.052-24.017 6.197-1.946 12.8-3.357 18.998-1.865 6.214 1.492 11.908 6.584 12.508 13.265.585 6.487-3.763 12.844-9.328 15.974-5.565 3.146-12.055 3.616-18.252 3.26-9.572-.552-18.982-2.936-28.586-2.871-9.621.081-23.119 1.054-29.22 9.082z" class="R"/><path d="M628.074 531.237c19.647-10.638 49.353-17.563 70.93-14.952" class="B C D E"/><path d="M382.672 226.454a34.27 34.27 0 0 1-2.758 8.952c-6.896-14.611-12.963-33.683-14.423-57.1-.39-6.341 1.379-12.86 4.753-18.325.341.373.633.778.925 1.167 4.851 6.633 7.349 14.709 9.183 22.753 3.179 13.93 4.607 28.428 2.32 42.553z" class="G H"/><path d="M450.633 225.627c14.667-5.205 29.917-9.357 43.253-17.401 4.04-2.432 7.917-5.254 10.789-8.984 2.855-3.73 4.624-8.497 3.991-13.168-.649-4.735-3.683-9.276-2.661-13.963.682-3.081 2.986-5.481 4.754-8.108 4.202-6.211 5.451-14.336 3.326-21.537-2.304-7.719-8.096-13.914-11.389-21.26-2.693-6.017-3.651-12.779-2.742-19.298-12.314.162-23.541 6.892-35.644 9.13-9.264 1.719-18.885.778-28.067 2.887-16.727 3.843-30.42 18.568-33.016 35.531-7.755-1.33-16.11 1.46-21.513 7.2-5.727 6.098-8.955 14.774-8.436 23.126 3.78 60.7 38.548 92.356 38.548 92.356s33.21-44.516 38.807-46.511z" fill="#7ee8d4"/><g class="B C D E"><path d="M417.813 225.206c-1.525-14.969 3.715-29.775 9.718-43.575 5.856-13.444 12.606-26.629 21.658-38.175s20.556-21.439 34.135-27.018"/><path d="M430.873 125.633c-1.542 13.347-.455 29.434 3.017 42.408m2.499-4.784c15.25-9.779 38.71-15.715 56.799-14.677m-94.098 17.174c18.366 7.736 19.112 34.721 19.615 42.391m4.997-17.157c14.05-10.071 34.346-13.103 49.288-9.341m-10.951-62.955c-4.218 5.206-5.273 11.401-4.851 15.698m3.991-3.81c6.474-3.309 15.137-4.071 24.401-1.752"/></g><g class="O"><path d="M99.939 159.948c1.72-.097 13.498-8.805 18.025-11.741 1.281-.827 2.563-1.686 3.455-2.919s1.315-2.919.666-4.297c-.812-1.703-2.142-3.406-5.5-3.406-5.857.016-7.901 1.946-10.757 4.882-9.426 9.746-5.889 17.481-5.889 17.481zm52.777 35.143c5.126 2.303 10.594 4.589 16.175 3.876 2.157-.276 4.526-1.265 5.24-3.309.617-1.751-.227-3.778-1.622-5.011s-3.229-1.832-5.046-2.27c-6.814-1.67-16.402-.746-23.151 1.168-.017 0 5.337 4.167 8.404 5.546zm33.745-75.669c-2.288-1.443-4.819-3.373-4.803-6.081 0-2.708 2.823-4.768 5.533-4.784s5.224 1.459 7.268 3.259c8.615 7.574 7.544 16.201 7.544 16.201l-15.542-8.595zm6.798-23.077c-2.012-.859-4.073-1.897-5.257-3.746-.568-.892-.892-2.027-.551-3.033.584-1.67 1.638-3.178 5.873-2.416 13.384 2.433 16.305 11.595 16.305 11.595s-12.817-.876-16.37-2.4zm39.213 20.272c5.37-.471 10.918-3.13 14.293-7.331 1.282-1.589 2.45-3.324 2.872-5.319s-.033-4.265-1.574-5.595c-1.882-1.622-4.867-1.362-6.928 0-2.076 1.362-3.407 3.601-4.478 5.822-1.427 2.984-4.185 12.423-4.185 12.423z"/></g><g class="B C D I"><path d="M136.605 312.291l-39.002-34.364c-6.928-6.097-14.001-12.39-18.382-20.514-9.426-17.466-3.991-40.154 8.745-55.381s31.393-24.212 50.148-30.748c18.738-6.535 38.256-11.125 56.118-19.785 11.211-5.432 22.47-13.508 25.553-25.574 1.849-7.249.292-15.309-4.121-21.341-4.413-6.049-11.617-9.974-19.096-10.412m44.989 9.99c-3.553 10.898-17.392 17.531-23.703 26.985"/><path d="M191.879 116.698c2.726 2.87 5.987 5.254 8.372 8.416 5.029 6.698 5.435 17.58-1.996 24.326m-76.381 28.299c11.47 8.838 26.542 14.725 41.013 15.276m-67.264.811c-5.289-15.569.471-34.218 13.612-44.094"/></g><g class="O"><path d="M514.864 128.05c-.617-1.93-.584-4.298.827-5.741 1.136-1.135 3.018-1.654 4.494-1.006 11.406 5.011 10.173 22.801 10.173 22.801s-10.805-1.556-15.494-16.054zm-.276 33.326c-7.382 13.33 18.836 12.308 28.294 4.459 0 0-21.934-15.941-28.294-4.459zm33.162-32.305c-1.785-2.432-2.418-6.065-.471-8.384 1.444-1.719 3.959-2.254 6.165-1.832s5.516 2.465 6.928 4.216c8.631 10.736 4.575 21.228 4.575 21.228s-14.293-11.238-17.197-15.228zm104.124 33.002c-.633-2.076-.487-4.606 1.119-6.065 1.022-.925 2.466-1.249 3.829-1.152s2.677.6 3.926 1.168c2.677 1.216 4.754 3.357 6.036 6 3.244 6.682 1.038 14.936 1.038 14.936s-14.358-9.714-15.948-14.887zm-32.756 24.455c-4.64-4.07-11.729-5.27-17.391-2.789-1.444.632-2.807 1.524-3.716 2.789-2.076 2.871-1.346 7.055.811 9.86 2.142 2.806 5.403 4.508 8.632 5.968 5.84 2.643 14.893 3.179 21.107 4.768-.016-.016-.033-12.341-9.443-20.596z"/></g><g class="B C D I"><path d="M523.041 130.92c3.861 12.617 14.779 22.152 26.931 27.293 12.152 5.157 25.536 6.52 38.726 7.363 13.174.859 26.51 1.281 39.246 4.735 12.411 3.373 24.79 10.379 30.111 22.088 6.49 14.255.747 31.282-8.371 44.029-9.102 12.73-21.367 22.996-30.177 35.937-4.039 5.935-7.43 12.909-6.603 20.044 1.087 9.519 9.118 16.525 16.565 22.558"/><path d="M553.412 126.282c8.728 9.649 15.704 24.747 17.408 37.656m-46.774-.357c4.997 1.33 10.059 2.66 15.218 2.676s11.146-2.854 14.861-6.438m106.299 3.032c4.672 4.509 7.528 10.882 7.771 17.369.243 6.503-3.358 14.368-7.69 19.217m-49.028-7.103c9.345 8.595 17.473 15.552 27.856 22.85 4.737 3.34 14.147 7.605 18.333 6.503"/></g><path d="M720.11 387.635c-2.466 1.411-5.062 2.644-7.674 3.746a92.15 92.15 0 0 1-32.074 7.104c-16.03.6-32.513-2.936-47.893 1.637-7.057 2.092-13.563 5.903-18.901 10.947-.535.259-1.071.551-1.606.859-1.282-10.849 25.78-24.99 34.005-28.671 14.845-6.649 31.393-9.601 47.617-8.303 7.106.567 14.391 1.962 20.247 6 2.515 1.735 4.722 4.054 6.279 6.681z" class="G H"/><path d="M693.569 381.441c7.107.567 14.391 1.962 20.248 6s9.994 11.254 8.631 18.244c-1.59 8.141-10.01 13.444-18.252 14.433-8.242 1.006-16.467-1.265-24.595-2.935a175.17 175.17 0 0 0-54.804-2.498c-4.559.503-8.875 1.411-12.85 3.746-1.281-10.849 25.796-24.99 34.022-28.671 14.845-6.665 31.393-9.617 47.6-8.319z" class="N"/><g class="B C D"><path d="M618.988 411.588c13.434-11.806 47.942-19.817 72.342-17.239 7.35.779 14.764 2.968 20.41 7.736" class="E"/><g class="I S"><path d="M593.89 278.933l131.235-.276c15.396-.033 27.905 12.422 27.937 27.812s-12.427 27.893-27.824 27.926l-89.766.178m-438.644 40.672l-91.779.195a15.73 15.73 0 0 0-15.704 15.763c.016 8.692 7.074 15.714 15.769 15.698l26.753-.049"/></g><path d="M50.342 446.276c-31.442.065-32.091 46.948 7.901 46.851l589.543-1.216c24.741-.049 27.353-38.645-3.229-38.58-60.888.129-62.9-28.899-29.106-28.964" class="Q S"/></g><path d="M57.692 444.979c.714 4.232-2.125 8.238-6.36 8.968-4.234.713-8.242-2.125-8.972-6.357-.714-4.233 2.125-8.239 6.36-8.968 4.234-.714 8.258 2.124 8.972 6.357z" class="M"/><path d="M630.54 424.578c.713 4.232-2.126 8.238-6.36 8.968-4.235.713-8.242-2.125-8.972-6.357-.714-4.233 2.125-8.239 6.36-8.968a7.8 7.8 0 0 1 8.972 6.357z" class="P"/><path d="M638.992 560.12l-488.159 1.005c-6.506.016-11.811-5.254-11.811-11.757l-.665-323.254c-.016-6.503 5.256-11.806 11.762-11.806l488.16-1.006c6.505-.016 11.811 5.255 11.811 11.758l.665 323.254c.016 6.503-5.241 11.789-11.763 11.806z" class="G H"/><path d="M629.437 553.939l-488.16 1.006c-6.505.016-11.811-5.255-11.811-11.758l-.665-323.254c-.016-6.503 5.257-11.806 11.763-11.806l488.159-1.005c6.506-.016 11.811 5.254 11.811 11.757l.665 323.254c.016 6.503-5.256 11.79-11.762 11.806z" fill="#fff"/><path d="M627.928 207.108l-486.066 1.005c-7.09.016-12.817 5.773-12.817 12.86l.016 11.157 511.749-1.054-.016-11.157c-.016-7.087-5.776-12.828-12.866-12.811z" class="F"/><path d="M142.446 554.946l73.445-.146-.665-322.848-86.279.178.633 310.037c.016 7.071 5.776 12.796 12.866 12.779z" class="L"/><path d="M628.869 210.351a8.57 8.57 0 0 1 8.55 8.53l.665 323.254a8.47 8.47 0 0 1-2.498 6.049c-1.606 1.622-3.748 2.514-6.035 2.514l-488.176 1.005a8.57 8.57 0 0 1-8.55-8.53l-.665-323.254a8.47 8.47 0 0 1 2.498-6.049 8.43 8.43 0 0 1 6.036-2.514l488.143-1.005h.032zm0-3.243h-.032l-488.16 1.005c-6.505.016-11.778 5.303-11.762 11.806l.665 323.254c.016 6.503 5.289 11.757 11.795 11.757h.032l488.16-1.005c6.506-.016 11.778-5.303 11.762-11.806l-.665-323.254c-.016-6.503-5.289-11.757-11.795-11.757z" class="F"/><g fill="#fff"><path d="M203.496 530.264l-56.605.114c-2.499 0-4.527-2.011-4.527-4.509v-.567c0-2.498 2.012-4.525 4.51-4.525l56.605-.113c2.499 0 4.527 2.01 4.527 4.508v.568c.016 2.497-2.012 4.524-4.51 4.524zm-6.798-219.027l-48.185.097c-4.575.017-8.29-3.697-8.306-8.27l-.098-48.165c-.016-4.573 3.699-8.287 8.275-8.303l48.184-.097c4.576-.017 8.291 3.697 8.307 8.27l.097 48.165c0 4.589-3.699 8.303-8.274 8.303z"/></g><g class="L"><path d="M402.984 455.52l-167.884.34c-3.261 0-5.906-2.627-5.922-5.886v-.73c0-3.26 2.628-5.903 5.889-5.919l167.885-.341c3.261 0 5.905 2.627 5.922 5.887v.73c0 3.276-2.629 5.919-5.89 5.919zm-9.702-191.199l-132.662.276c-3.261 0-5.906-2.627-5.922-5.887v-.73c0-3.259 2.628-5.903 5.889-5.919l132.663-.276a5.92 5.92 0 0 1 5.922 5.887v.73c0 3.276-2.629 5.919-5.89 5.919zm209.726 134.131l-176.889.373c-3.261 0-5.905-2.627-5.921-5.887v-.729c0-3.26 2.628-5.903 5.889-5.92l176.889-.356c3.261 0 5.905 2.627 5.921 5.886v.73c0 3.244-2.628 5.887-5.889 5.903zm-199.975 82.999l-167.884.34c-3.261 0-5.906-2.627-5.922-5.886v-.73c0-3.26 2.628-5.903 5.889-5.919l167.885-.341c3.261 0 5.905 2.627 5.921 5.887v.73c.017 3.259-2.628 5.903-5.889 5.919zm.048 25.915l-167.884.34c-3.261 0-5.905-2.627-5.922-5.887v-.729a5.92 5.92 0 0 1 5.89-5.92l167.884-.34c3.261 0 5.905 2.627 5.922 5.887v.729a5.9 5.9 0 0 1-5.89 5.92zm196.325 16.898l-169.198.357a9.74 9.74 0 0 1-9.767-9.731l-.146-72.636a9.74 9.74 0 0 1 9.734-9.762l169.199-.357a9.74 9.74 0 0 1 9.766 9.73l.146 72.636a9.74 9.74 0 0 1-9.734 9.763zm-442.294-304.41a4.13 4.13 0 0 1-4.121 4.135c-2.271 0-4.137-1.848-4.137-4.119a4.13 4.13 0 0 1 4.121-4.135c2.271 0 4.137 1.849 4.137 4.119zm13.384 4.119c2.285 0 4.138-1.851 4.138-4.135s-1.853-4.135-4.138-4.135-4.137 1.851-4.137 4.135 1.853 4.135 4.137 4.135zm21.643-4.184a4.13 4.13 0 0 1-4.121 4.136c-2.271 0-4.137-1.849-4.137-4.12a4.13 4.13 0 0 1 4.121-4.135c2.272-.016 4.121 1.833 4.137 4.119zm56.066 39.804c.659-6.568-4.134-12.425-10.705-13.084a11.96 11.96 0 0 0-13.089 10.701c-.659 6.568 4.134 12.426 10.705 13.084a11.96 11.96 0 0 0 13.089-10.701z"/></g><g fill="#fff"><path d="M200.056 321.34l-52.97.114a2.24 2.24 0 0 1-2.239-2.222v-.276a2.24 2.24 0 0 1 2.222-2.238l52.971-.113a2.24 2.24 0 0 1 2.239 2.222v.275a2.23 2.23 0 0 1-2.223 2.238zm.017 10.12l-52.971.113a2.24 2.24 0 0 1-2.239-2.222v-.275c0-1.233.989-2.222 2.222-2.238l52.971-.114a2.24 2.24 0 0 1 2.239 2.222v.276a2.24 2.24 0 0 1-2.222 2.238z"/></g><g class="L"><path d="M260.717 352.834l-14.974.146.113 62.727-12.93.033c-4.559.016-8.258-3.682-8.274-8.239l-.244-116c-.016-4.606 3.715-8.352 8.323-8.352l27.824-.065.162 69.75z"/><path d="M357.882 282.89v1.621a8.13 8.13 0 0 1 8.128 8.109l.227 113.097c0 2.173-.844 4.217-2.369 5.757s-3.569 2.384-5.743 2.401l-123.739.259a8.13 8.13 0 0 1-8.128-8.109l-.227-113.097c0-2.173.843-4.216 2.368-5.757s3.57-2.384 5.744-2.4l123.723-.26.016-1.621zm0 0h-.016l-123.723.259c-5.387.016-9.751 4.379-9.735 9.763l.227 113.097c.017 5.384 4.381 9.73 9.751 9.73h.016l123.723-.259c5.387-.016 9.751-4.379 9.735-9.763l-.228-113.097c0-5.384-4.364-9.747-9.75-9.73zm206.594 93.069l-165.028-37.283c-5.257-1.184-8.55-6.405-7.366-11.66l18.56-82.107c1.184-5.254 6.408-8.546 11.665-7.362l165.029 37.283c5.256 1.184 8.55 6.406 7.365 11.66l-18.56 82.107c-1.184 5.254-6.408 8.562-11.665 7.362z"/></g><path d="M245.094 599.267l-23.087.049-5.662-29.401 34.281-.065-5.532 29.417z" class="F"/><path d="M222.738 569.898c0 2.401-.455 6.422 1.151 6.487s.941-3.827 2.758-3.713c1.169.064-.535 12.779 3.862 13.087 3.017.211 2.466-6.228 2.774-10.266.211-2.724 3.699-2.189 3.732-.389.032 2.027-.098 3.373 0 5.676.162 3.844 6.067 2.822 5.856-2.303s-.016-8.595-.016-8.595l-20.117.016z" class="L"/><path d="M217.221 587.656a6.29 6.29 0 0 1-1.363-.146c-1.703-.373-2.887-1.265-3.553-2.66-2.352-4.995 3.845-14.336 4.089-14.757l.324 1.686c-.048.098-5.451 8.125-3.326 12.617.503 1.07 1.396 1.735 2.742 2.027a5.45 5.45 0 0 0 1.152.114c8.323-.016 22.535-15.504 22.697-15.682.584-.697 1.671-.032 1.282.551-.665.746-15.104 16.234-24.044 16.25z" class="J"/><path d="M459.865 185.523c-32.821-1.249-78.004 23.012-61.975 82.334-.341 5.011 2.661 8.595 5.857 7.622s.373-10.493.373-10.493c5.468-44.11 15.689-51.732 33.032-51.57l40.706-.081c10.058 1.476 28.343 8.514 31.084 43.818l10.14 1.865c.795-25.509-5.37-71.436-59.217-73.495z" class="G H"/><path d="M459.865 180.35c-32.821-1.249-78.004 23.011-61.975 82.333l6.23-2.87c5.468-44.11 15.689-51.732 33.032-51.57l40.706-.081c10.058 1.475 28.829 10.411 31.571 45.715l9.637-.016c.811-25.525-5.354-71.452-59.201-73.511z" class="T"/><g class="K"><path d="M453.149 181.323l-4.867 10.703s.584 6.032 6.506 5.903 6.716-2.854 6.716-2.854l.779-12.293-9.134-1.459z"/><path d="M478.215 172.387c-5.549 9.811-8.015 12.876-15.283 14.352-9.41 1.914-19.956-4.427-15.056-20.06 3.991-12.747 10.059-10.785 15.98-10.298 5.922.47 20.361 5.4 14.359 16.006z"/></g><path d="M456.118 164.635c-1.477-.762-3.375-.113-4.527 1.087-1.184 1.248-1.752 3.097-1.249 4.735-2.271.033-4.267 2.254-4.056 4.525-1.557-3.617-.714-7.395-1.022-11.109s.097-7.735 2.498-10.573c.99-1.168 2.256-2.06 3.602-2.774 5.111-2.724 11.552-2.805 16.743-.243 1.071.535 3.764 2.222 7.528 1.314 7.171-1.735 11.357 3.113 7.057 7.654 1.379.503 2.904 1.119 3.521 2.449.162.341.243.762.032 1.07-.146.211-.405.325-.665.406-1.2.405-2.514.502-3.78.292.487.405 3.148.567 3.942 2.124 2.142 4.119-6.327 2.043-7.625 1.622 1.477.275 5.338 3.357 4.105 5.481-.243.422-5.468 3.454-10.951-2.919-1.282-1.476-2.872-2.854-4.754-3.357-1.476-.389-3.034.146-4.478.697-1.054.39-3.731 2.028-4.494 1.055-.795-1.038.292-2.676-1.427-3.536z" class="J"/><g class="K"><path d="M510.484 253.861c-1.461 5.011-2.921 5.498-1.169 6.293 1.769.794 3.197-2.011 3.197-2.011l8.144 1.621s-1.833-5.286-3.115-5.919-7.057.016-7.057.016zm-106.364 5.952c1.071 2.643 1.363 2.66 2.839 5.838 2.839 6.065-3.796 15.65-7.917 5.19-1.136-2.871-1.152-8.141-1.152-8.141l6.23-2.887z"/></g><g class="J"><path d="M467.718 151.143c5.564.308 12.411-3.617 16.775 1.41.406.471 1.217-.145.86-.664-4.17-5.984-11.909-1.525-17.619-1.687-.617 0-.601.908-.016.941zm2.239-3.065c-3.797.664-7.463-1.136-11.276-.536-3.099.487-5.857 2.076-8.193 4.103-.6.519.179 1.541.86 1.103 3.277-2.157 6.425-4.022 10.513-3.714 2.969.211 5.484 1.103 8.436.211.747-.227.422-1.297-.34-1.167zm-21.643 5.189c-2.677 1.67-4.218 3.892-4.543 7.087-.227 2.303-.292 7.573 2.028 8.871.552.308 1.136-.422.682-.892-1.493-1.509-1.623-5.579-1.509-7.493.162-2.935 1.395-5.173 3.731-6.924.373-.276.033-.908-.389-.649zm41.16 9.13c-1.379-2.384-4.9-4.492-7.609-2.984-.422.244-.227.892.243.892 1.185.016 2.271-.13 3.423.227 1.314.406 2.418 1.168 3.196 2.287.325.454 1.023.065.747-.422z"/></g><path d="M308.935 409.788c17.213 6.324 32.155 26.044 28.716 40.396-3.878 16.201-15.056 23.191-15.056 23.191l-3.521-6.503s8.94-13.963 8.161-20.563c-1.249-10.558-14.585-17.628-14.585-17.628l-3.715-18.893z" class="P"/><g class="J"><path d="M266.574 592.586s-10.561 4.265-13.206 6.681l20.929-.048-.016-6.649-7.707.016zm46.254-.405s3.002 3.47 3.553 6.957l-14.277.032c.244-2.4 1.266-4.719 2.661-6.973l8.063-.016z"/></g><path d="M313.704 592.489l-9.75.016c.195-11.482-2.174-50.613-4.462-79.869-1.346-17.157-2.677-30.942-3.455-33.731l5.224-1.152 19.712-4.378c3.374 15.406-4.413 86.145-7.269 119.114z" fill="#047f76"/><use xlink:href="#B" fill="#009790"/><path d="M311.498 477.461c-4.462 12.115-8.469 23.969-12.006 35.175-1.346-17.158-2.677-30.942-3.455-33.731l5.224-1.152 10.237-.292z" class="G H"/><use xlink:href="#B" fill="#009790"/><path d="M283.674 381.684s-5.921 22.541 8.875 22.525l-.876 5.757 11.227 1.233-2.434-8.028 2.369-16.736c.275-4.784-13.125-13.2-19.161-4.751z" class="K"/><path d="M247.104 356.414l-4.364.009.037 18.406 4.364-.009-.037-18.406z" class="J"/><path d="M257.424 356.385l-25.017.049c-1.752 0-3.18-1.411-3.18-3.163v-.648c0-1.752 1.412-3.179 3.164-3.179l25.017-.048c1.752 0 3.18 1.41 3.18 3.162v.649c.016 1.751-1.412 3.178-3.164 3.178z" class="F"/><path d="M241.573 379.624c-.113-4.168-3.569-3.081-1.671-9.892 1.168-4.217 9.881.681 8.794 3.6s-2.337 7.541-2.337 7.541l-4.786-1.249z" class="K"/><g class="F"><use xlink:href="#C"/><use xlink:href="#C"/></g><g class="T"><path d="M289.596 386.014c1.444.373 3.115.648 3.894 1.865.503.794.47 1.783.422 2.708.259-.973 1.346-1.671 2.368-1.541 1.039.114 1.915 1.038 1.931 2.044.016.47-.146.924-.324 1.362-.438 1.102-.99 2.14-1.639 3.13 1.801.665 3.326 5.951 4.218 7.589 3.034-.762 9.799-3.373 10.383-14.125.276-5.011-1.249-11.011-6.684-14.336-3.845-2.351-10.205-2.384-14.601-1.265-3.569.909-9.248 4.476-6.603 8.628 1.33 2.092 4.25 3.324 6.635 3.941z"/><path d="M308.546 379.17c2.06-.681 4.672-.324 5.905 1.395.957 1.346.876 3.097 1.184 4.703.147.778.422 1.556 1.023 2.092.713.632 1.752.794 2.725.843 2.385.13 4.786-.178 7.139.227s4.753 1.719 5.418 3.908c.374 1.217.163 2.546.617 3.73.665 1.784 2.563 2.806 4.218 3.844 3.521 2.205 6.522 5.189 8.68 8.643 1.379 2.19 2.434 4.622 2.596 7.168s2.012 5.919 1.509 8.417c-.536 2.708-3.197 6.373-8.453 8.06-9.085 2.919-11.973 4.184-20.685-.99-1.055-.616-3.099-2.74-4.056-3.502-.747-.6-1.217-1.46-1.477-2.352-.73-2.497.114-5.189 1.412-7.46s3.066-4.281 4.396-6.535c.795-1.362 1.444-2.871 1.379-4.427-.032-.584-.178-1.184-.6-1.606-.373-.357-.892-.535-1.411-.632-1.915-.373-4.024.016-5.744-.844-1.687-.827-2.612-2.87-2.093-4.622.341-1.167 1.233-2.156 1.477-3.34.357-1.719-.714-3.471-2.207-4.476s-3.325-1.395-5.126-1.687c-.893-.146-1.817-.292-2.531-.811-.893-.632-1.298-1.751-1.282-2.805.065-3.373 2.807-5.887 5.987-6.941z"/><path d="M306.906 388.235c10.935 2.368-2.871 12.731 2.921 17.693 1.655 1.411 3.569.973 5.5 1.233 7.43 1.021 3.358 6.065 2.855 10.022-.081.6.909.713 1.038.146.633-2.725 3.132-6.065 1.85-8.968-1.136-2.563-3.959-2.254-6.279-2.336-2.904-.081-6.1 0-5.013-5.757.243-1.281 1.266-2.578 1.768-3.794.568-1.395.958-2.773.649-4.298-.535-2.578-2.677-4.087-5.143-4.492-.356-.081-.519.47-.146.551zm-22.534-13.395c8.436-4.281 16.84-3.422 23.963 2.854a.51.51 0 0 0 .714-.713c-6.247-7.038-17.36-8.271-24.904-2.546-.243.194-.049.551.227.405z"/></g><g class="K"><path d="M567.738 401.29l-3.651 7.363 8.924 3.649.957-8.466-6.23-2.546z"/><path d="M573.124 377.37c-20.264 8.822-11.957 30.196.373 27.682 6.003-1.216 9.037-20.546 9.037-20.546l-9.41-7.136z"/></g><path d="M579.857 374.337c-.665-1.232-1.298-2.562-2.401-3.438s-2.839-1.167-3.861-.21c-1.363 1.265-.568 3.632.811 4.881-1.184.146-2.596-.681-3.472.146-.665.616-.438 1.719-.049 2.546.893 1.93 2.353 3.616 4.154 4.752-1.022.583-2.223 1.719-1.606 2.724.178.276.454.47.632.746.39.649.017 1.492-.389 2.141-.633 1.054-1.33 2.075-2.061 3.065.698-.957 2.402-.568 2.905.502s.064 2.384-.731 3.26c-.438.486-.989.892-1.638 1.038-.552.13-3.018 7.719-1.103 9.211 2.368 1.833 10.415.243 11.583-1.832 1.169 1.264 2.872 2.221 4.559 1.881s2.969-2.417 2.061-3.876a4.9 4.9 0 0 0 5.289-1.411 4.86 4.86 0 0 0 .438-5.449c.99-.292 1.2-1.638.941-2.643-.519-2.027-2.174-3.746-4.202-4.314 1.022.016 1.833-1.022 1.882-2.043s-.487-1.995-1.136-2.79c-1.898-2.351-4.153-2.967-6.96-3.324-2.823-.341-4.38-3.227-5.646-5.563z" class="O"/><g class="J"><path d="M560.875 591.191s-11.859 5.693-13.449 7.46c0 0 23.33 1.054 25.163-.048s-3.732-7.428-3.732-7.428l-7.982.016zm44.113-6.438s-10.416 8.028-11.616 10.087c0 0 24.595-3.649 24.595-5.254s-5.192-6.503-5.192-6.503l-7.787 1.67z"/></g><path d="M572.329 481.289c-.438 2.416-16.678 66.473 29.787 104.891l13.45-3.081s-15.656-14.676-23.038-41.11c-6.976-24.99-1.444-27.439 2.742-41.191 4.64-15.228 1.184-26.288 1.184-26.288l-24.125 6.779z" fill="#d8742a"/><path d="M550.135 481.094c-7.366 17.596-20.004 77.55 7.544 111.298l13.758-.033s-10.838-11.871-12.055-39.424 5.792-39.65 10.741-48.732c4.948-9.097 9.523-24.536 9.523-24.536l-29.511 1.427z" class="T"/><path d="M540.433 372.035c-3.65 12.876-4.851 36.683 13.45 46.267l12.249-2.984s-22.097-11.579-17.36-40.835l-8.339-2.448z" class="P"/><path d="M506.671 365.45l9.507-1.167s-1.152 39.926 44.989 43.299c35.222 2.563 37.98 68.631 37.98 68.631-11.357 7.638-30.404 9.957-54.821 8.205 0 0 1.558-47.126-2.32-60.035 0-.016-38.337-12.065-35.335-58.933z" class="F"/><g class="K"><path d="M495.039 358.202c-1.607 1.864 5.11 4.232 11.632 7.249l8.355-1.022s.098-1.671 0-3.406-.973-2.724-1.963-1.232-5.208 1.994-7.203.632c-2.012-1.378-9.215-4.086-10.821-2.221zm45.394 13.833c-3.067-3-2.239-2.822-2.239-2.822l9.329 2.108s2.044-4.557 3.796-4.67c1.736-.13-1.314 3.13-.616 4.346s-1.915 3.503-1.915 3.503l-8.355-2.465z"/></g><g class="O"><path d="M585.097 378.732c1.915.487 3.861.681 5.451 1.995 1.574 1.297 2.288 3.519 1.152 5.319-.535.843.73 1.508 1.298.762 1.444-1.897 1.055-4.492-.405-6.292-1.688-2.06-4.819-2.919-7.382-2.643-.455.048-.617.729-.114.859zm8.436 17.304c1.266.746 2.32 1.946 1.785 3.519-.503 1.443-1.963 2.303-3.147 3.13-.568.405-.082 1.265.551.94 1.752-.924 3.602-2.221 3.878-4.362.243-1.865-1.006-3.276-2.564-4.119-.568-.292-1.054.551-.503.892zm-21.301 9.665c4.299 2.676 10.383 2.238 13.936-1.524.438-.47-.163-1.346-.714-.925-3.894 2.887-8.307 3.811-12.866 1.849-.405-.178-.746.357-.356.6zm21.869-24.147c2.466 2.351 0 5.562-1.59 7.573-.357.438.195 1.038.633.633 1.411-1.314 2.823-2.773 3.017-4.784.146-1.525-.486-2.968-1.833-3.714-.178-.097-.389.146-.227.292z"/></g><path d="M319.658 85.302l-3.796-9.292 36.714-13.947-32.918 23.239z" class="P"/><g class="M"><path d="M321.508 79.561l31.069-17.498L330.95 84.02l-9.442-4.46z"/><path d="M307.458 72.214l45.119-10.152-36.715 13.947-8.404-3.795z"/></g><path d="M321.508 79.561l-1.85 5.741 5.614-3.957-3.764-1.784z" class="F"/><path d="M315.343 84.053c-9.588-1.622-22.6 8.076-17.003 18.163 1.898 3.438 11.73 1.946 11-1.849-.357-1.816-2.58-2.595-4.413-2.384-10.708 1.233-11.146 10.201-10.659 12.487 2.45 11.806 20.556 7.817 26.64 6.147" class="B C D Q S"/></g><defs><clipPath id="A"><path fill="#fff" d="M0 0h770v657H0z"/></clipPath><path id="B" d="M277.866 478.288c-7.609 11.969-9.572 98.503-12.752 114.541l9.248.519s10.626-54.554 33.242-115.887l-29.738.827z"/><path id="C" d="M292.646 408.653c-22.113 1.459-23.573 8.919-33.47 7.751-14.65-1.719-12.086-28.915-10.269-38.661l-8.745.016s-15.77 61.933 34.038 50.484c-1.915 10.849 10.48 28.574-1.542 50.078 18.901 5.141 36.553 6.389 51.657-.097-2.644-3.568 5.419-39.554-10.367-65.452-3.082-5.076-19.679-4.233-21.302-4.119z"/></defs></svg>